Coordinates
version=1
nRows=9
nColumns=36
inDegrees=yes

Units are S.I. units (second, meters, Newtons, ...)
If the header above contains a line with 'inDegrees', this indicates whether rotational values are in degrees (yes) or radians (no).

endheader
time	pelvis_tilt	pelvis_list	pelvis_rotation	pelvis_tx	pelvis_ty	pelvis_tz	hip_flexion_r	hip_adduction_r	hip_rotation_r	knee_angle_r	knee_angle_r_beta	ankle_angle_r	subtalar_angle_r	mtp_angle_r	hip_flexion_l	hip_adduction_l	hip_rotation_l	knee_angle_l	knee_angle_l_beta	ankle_angle_l	subtalar_angle_l	mtp_angle_l	lumbar_extension	lumbar_bending	lumbar_rotation	arm_flex_r	arm_add_r	arm_rot_r	elbow_flex_r	pro_sup_r	arm_flex_l	arm_add_l	arm_rot_l	elbow_flex_l	pro_sup_l
      3.20000000	      6.23778981	     -4.63684064	     -1.54893468	      0.63273037	      0.99700742	     -0.12156414	     20.48301066	    -10.17287173	    -18.93908236	     50.67891053	      0.88451385	      3.32426147	    -32.67280805	     -7.49999987	     -5.78961933	      1.86641663	     -7.16367554	      6.14225848	      0.10720263	     12.79668409	      1.62019578	     -7.49999987	     -7.25247975	      2.98147692	     -3.90748181	      2.10324149	     -5.48064119	      6.42068110	     30.90915518	     73.93678148	     -2.28293972	     -8.93442869	     12.30806593	     21.45099290	     75.96433498
      3.21666670	      5.03608704	     -4.18405138	     -1.76635588	      0.63618249	      0.99985456	     -0.12129472	     20.00315372	    -10.94705311	    -18.37524092	     50.92616313	      0.88882922	      4.41612558	    -33.19005705	     -7.49999987	     -4.38418268	      2.19735012	     -7.09393809	      6.38419305	      0.11142519	     13.97805172	      1.47567067	     -7.49999987	     -5.35571822	      2.35647081	     -3.64745736	      1.62675475	     -5.35004126	      6.86417725	     30.57302766	     73.38656595	     -2.95791993	     -9.08434069	     11.67550934	     20.31292967	     74.89838139
      3.23333330	      4.31006499	     -3.76419413	     -1.88055024	      0.63304893	      0.99531261	     -0.11944442	     19.13033677	    -11.59929630	    -17.87290169	     50.81161857	      0.88683004	      5.87051649	    -33.36747306	     -7.49999987	     -3.60547331	      2.58186102	     -6.62645383	      6.52612536	      0.11390237	     15.20029949	      0.71421666	     -7.49999987	     -4.42351345	      1.75994881	     -3.58867721	      1.31425460	     -5.23867028	      6.93248611	     31.02522891	     72.50007497	     -3.75005563	     -9.53119172	     11.41563644	     20.58406912	     73.76949327
      3.25000000	      3.32546338	     -3.47761530	     -1.91697909	      0.63109014	      0.99118007	     -0.11676919	     18.43156221	    -11.90492532	    -17.60389415	     50.22180891	      0.87653592	      6.79295870	    -33.41207470	     -7.49999987	     -2.57840370	      2.76768622	     -6.57197010	      6.56191559	      0.11452703	     15.71374482	      0.67877161	     -7.49999987	     -3.05076899	      1.26110338	     -3.48784045	      1.13189562	     -5.17178591	      7.86372999	     30.55790914	     72.44079990	     -4.06076221	     -9.84071402	     11.13075279	     19.61002159	     73.19667349
      3.26666670	      2.51679921	     -3.07338240	     -2.05027107	      0.62750851	      0.98972926	     -0.11395028	     17.78551230	    -12.17802478	    -17.28654486	     49.37522062	      0.86176017	      7.67556984	    -33.47626646	     -7.49999987	     -1.60068735	      3.11747705	     -6.35567594	      6.79233812	      0.11854866	     15.61195554	     -0.01847495	     -7.49999987	     -2.26987482	      0.64172525	     -3.35774654	      0.98535258	     -5.00605008	      8.19793009	     30.70830372	     71.97757561	     -4.52651987	    -10.34975893	     10.87599319	     19.77655216	     72.46345468
      3.28333330	      1.81229822	     -2.82719256	     -2.20484155	      0.62839243	      0.99360821	     -0.11405382	     16.69034956	    -12.20150795	    -17.34896313	     47.79830675	      0.83423783	      7.81374315	    -33.34568344	     -7.49999987	     -0.97607158	      3.28011272	     -6.34578221	      6.68996289	      0.11676188	     15.24291741	      0.11110719	     -7.49999987	     -1.49511283	      0.22337351	     -3.15693845	      0.79586863	     -4.86377490	      8.38887879	     30.73957929	     72.03407777	     -4.85377114	    -10.76353612	     10.77518179	     19.68992177	     72.43057964
      3.30000000	      1.02380653	     -2.81860117	     -2.23064861	      0.62675723	      0.99773447	     -0.11158044	     15.34458572	    -11.67662877	    -17.72203265	     45.09430640	      0.78704412	      7.08680463	    -33.03884438	     -7.49999987	     -0.30132422	      3.20415108	     -6.06614614	      6.61507586	      0.11545485	     14.89714602	     -0.18864504	     -7.49999987	     -0.66672179	      0.10041718	     -3.34972522	      0.84525895	     -4.74512329	      9.05977726	     30.49956550	     71.75346713	     -5.33896760	    -11.03368075	     10.14444148	     19.67478366	     71.73722244
      3.31666670	      0.39601502	     -2.61822391	     -2.42395023	      0.62892774	      0.99096151	     -0.10825581	     14.07962719	    -11.27908344	    -17.87839146	     42.70913350	      0.74541500	      6.88681582	    -32.49480899	     -7.49999987	      0.17779456	      3.29569229	     -6.36845178	      6.37161434	      0.11120565	     14.73847182	      0.09357740	     -7.49999987	      0.02290749	     -0.21028582	     -3.15516519	      0.64435675	     -4.60630503	      9.38763450	     30.47092405	     71.87692704	     -5.59506868	    -11.40616630	     10.03119108	     19.63932470	     71.72483029
      3.33333330	     -0.08142303	     -2.43391721	     -2.63458425	      0.62501178	      0.99024413	     -0.10308137	     12.81734343	    -10.66419742	    -18.03680245	     39.95678562	      0.69737747	      6.57354816	    -31.85081930	     -7.49999987	      0.65685254	      3.28698156	     -6.81134169	      6.32532776	      0.11039780	     14.98880293	      1.03995430	     -7.49999987	      0.31522098	     -0.61203264	     -3.27192505	      0.82017052	     -4.50782091	     10.53538548	     30.30507069	     72.14899259	     -5.96863432	    -11.78399590	      9.49608468	     19.98210739	     71.44493335
